<!-- icon666.com - MILLIONS vector ICONS FREE --><svg id="Capa_1" enable-background="new 0 0 512 512" viewBox="0 0 512 512" xmlns="http://www.w3.org/2000/svg"><g><path d="m473.521 472h-157.024v-82.686h11.498c33.336 0 63.531-20.986 75.139-52.222 3.848-10.354-1.427-21.867-11.78-25.714-10.358-3.847-21.867 1.428-25.714 11.781-5.813 15.645-20.942 26.155-37.645 26.155h-226.97l-34.861-49.594 34.861-49.594h320.337c6.513 0 12.617-3.171 16.362-8.499l48.921-69.594c4.851-6.9 4.851-16.103 0-23.003l-48.921-69.594c-3.745-5.328-9.85-8.499-16.362-8.499h-104.865v-50.937c0-11.046-8.954-20-20-20h-80.994c-11.046 0-20 8.954-20 20v50.938h-11.498c-44.188 0-80.139 35.945-80.139 80.127v59.061h-13.228c-6.513 0-12.617 3.171-16.362 8.499l-48.921 69.594c-4.851 6.9-4.851 16.103 0 23.003l48.921 69.594c3.745 5.328 9.85 8.499 16.362 8.499h104.865v82.685h-157.024c-11.046 0-20 8.954-20 20s8.954 20 20 20h435.043c11.046 0 20-8.954 20-20s-8.955-20-20.001-20zm-238.018-432h40.994v30.938h-40.994zm-91.637 111.065c0-22.126 18.006-40.127 40.139-40.127h226.97l34.861 49.594-34.861 49.594h-267.109zm91.637 320.935v-82.686h40.994v82.686z"></path></g></svg>