<!-- icon666.com - MILLIONS vector ICONS FREE --><svg version="1.1" id="Capa_1" xmlns="http://www.w3.org/2000/svg" xmlns:xlink="http://www.w3.org/1999/xlink" x="0px" y="0px" viewBox="0 0 512.002 512.002" style="enable-background:new 0 0 512.002 512.002;" xml:space="preserve"><g><g><g><path d="M307.008,301.968c-11.047,0-20.002,8.955-20.002,20.002v98.032l-62.441-108.04c-3.574-6.185-10.175-9.993-17.318-9.993 h-2.25c-11.047,0-20.002,8.955-20.002,20.002V491.99c0,11.047,8.955,20.002,20.002,20.002s20.002-8.955,20.002-20.002v-99.329 l63.191,109.338c3.574,6.185,10.175,9.993,17.318,9.993h1.5c11.047,0,20.002-8.955,20.002-20.002V321.971 C327.01,310.923,318.055,301.968,307.008,301.968z"></path><path d="M506.081,426.022c-0.052-0.109-0.105-0.218-0.159-0.326L310.736,33.083C300.515,12.733,280.02,0.06,257.247,0.009 c-0.048,0-0.091,0-0.138,0c-22.716,0-43.209,12.572-53.536,32.908L6.136,425.66c-0.065,0.129-0.128,0.259-0.19,0.389 c-11.05,23.223-6.449,49.987,11.723,68.185c11.621,11.637,26.752,17.73,42.229,17.73c8.627-0.001,17.363-1.894,25.656-5.776 l47.558-20.887c10.114-4.443,14.713-16.243,10.27-26.357c-4.442-10.114-16.241-14.713-26.357-10.27l-47.799,20.993 c-0.176,0.077-0.351,0.157-0.525,0.24c-11.832,5.609-20.383-1.598-22.723-3.94c-2.328-2.331-9.467-10.824-3.985-22.563 L237,55.491v186.471c0,11.047,8.955,20.002,20.002,20.002c11.047,0,20.002-8.955,20.002-20.002V55.099l193,388.219 c5.494,11.756-1.661,20.254-3.993,22.586c-2.342,2.339-10.902,9.539-22.727,3.919c-0.183-0.087-0.368-0.171-0.554-0.253 l-47.684-20.903c-10.116-4.434-21.914,0.171-26.35,10.289c-4.435,10.118,0.172,21.914,10.289,26.35l47.433,20.793 c23.157,10.856,49.766,6.202,67.876-11.902C512.482,476.014,517.108,449.254,506.081,426.022z"></path></g></g></g></svg>